<mxfile host="Electron" agent="Mozilla/5.0 (Windows NT 10.0; Win64; x64) AppleWebKit/537.36 (KHTML, like Gecko) draw.io/24.7.17 Chrome/128.0.6613.36 Electron/32.0.1 Safari/537.36" version="24.7.17">
  <diagram name="Page-1" id="Icaxh9YgE6_ko6Y2-2FJ">
    <mxGraphModel dx="2074" dy="1214" grid="1" gridSize="10" guides="1" tooltips="1" connect="1" arrows="1" fold="1" page="1" pageScale="1" pageWidth="850" pageHeight="1100" math="0" shadow="0">
      <root>
        <mxCell id="0" />
        <mxCell id="1" parent="0" />
        <mxCell id="2WgujiNxTRjsTM1ibm0o-6" value="Window" style="rounded=0;whiteSpace=wrap;html=1;" parent="1" vertex="1">
          <mxGeometry x="40" y="10" width="120" height="30" as="geometry" />
        </mxCell>
        <mxCell id="2WgujiNxTRjsTM1ibm0o-7" value="Scene" style="rounded=0;whiteSpace=wrap;html=1;" parent="1" vertex="1">
          <mxGeometry x="200" y="10" width="120" height="30" as="geometry" />
        </mxCell>
        <mxCell id="2WgujiNxTRjsTM1ibm0o-8" value="Panel" style="rounded=0;whiteSpace=wrap;html=1;" parent="1" vertex="1">
          <mxGeometry x="360" y="10" width="120" height="30" as="geometry" />
        </mxCell>
        <mxCell id="2WgujiNxTRjsTM1ibm0o-9" value="Checkbox" style="rounded=0;whiteSpace=wrap;html=1;" parent="1" vertex="1">
          <mxGeometry x="520" y="10" width="120" height="30" as="geometry" />
        </mxCell>
        <mxCell id="2WgujiNxTRjsTM1ibm0o-10" value="Interactivity policy" style="rounded=0;whiteSpace=wrap;html=1;" parent="1" vertex="1">
          <mxGeometry x="730" y="10" width="120" height="30" as="geometry" />
        </mxCell>
        <mxCell id="2WgujiNxTRjsTM1ibm0o-11" value="State change policy" style="rounded=0;whiteSpace=wrap;html=1;" parent="1" vertex="1">
          <mxGeometry x="890" y="10" width="120" height="30" as="geometry" />
        </mxCell>
        <mxCell id="2WgujiNxTRjsTM1ibm0o-12" value="Glyph update policy" style="rounded=0;whiteSpace=wrap;html=1;" parent="1" vertex="1">
          <mxGeometry x="1050" y="10" width="120" height="30" as="geometry" />
        </mxCell>
        <mxCell id="2WgujiNxTRjsTM1ibm0o-13" value="Glyph" style="rounded=0;whiteSpace=wrap;html=1;" parent="1" vertex="1">
          <mxGeometry x="1210" y="10" width="120" height="30" as="geometry" />
        </mxCell>
        <mxCell id="2WgujiNxTRjsTM1ibm0o-14" value="" style="endArrow=none;dashed=1;html=1;strokeWidth=2;rounded=0;" parent="1" target="2WgujiNxTRjsTM1ibm0o-6" edge="1">
          <mxGeometry width="50" height="50" relative="1" as="geometry">
            <mxPoint x="100" y="1300" as="sourcePoint" />
            <mxPoint x="550" y="130" as="targetPoint" />
          </mxGeometry>
        </mxCell>
        <mxCell id="2WgujiNxTRjsTM1ibm0o-15" value="" style="endArrow=none;dashed=1;html=1;strokeWidth=2;rounded=0;" parent="1" target="2WgujiNxTRjsTM1ibm0o-7" edge="1">
          <mxGeometry width="50" height="50" relative="1" as="geometry">
            <mxPoint x="260" y="1300" as="sourcePoint" />
            <mxPoint x="260" y="70" as="targetPoint" />
          </mxGeometry>
        </mxCell>
        <mxCell id="2WgujiNxTRjsTM1ibm0o-16" value="" style="endArrow=none;dashed=1;html=1;strokeWidth=2;rounded=0;" parent="1" source="2WgujiNxTRjsTM1ibm0o-26" target="2WgujiNxTRjsTM1ibm0o-8" edge="1">
          <mxGeometry width="50" height="50" relative="1" as="geometry">
            <mxPoint x="420" y="1090" as="sourcePoint" />
            <mxPoint x="420" y="70" as="targetPoint" />
          </mxGeometry>
        </mxCell>
        <mxCell id="2WgujiNxTRjsTM1ibm0o-17" value="" style="endArrow=none;dashed=1;html=1;strokeWidth=2;rounded=0;" parent="1" target="2WgujiNxTRjsTM1ibm0o-9" edge="1">
          <mxGeometry width="50" height="50" relative="1" as="geometry">
            <mxPoint x="580" y="1300" as="sourcePoint" />
            <mxPoint x="580" y="70" as="targetPoint" />
          </mxGeometry>
        </mxCell>
        <mxCell id="2WgujiNxTRjsTM1ibm0o-18" value="" style="endArrow=none;dashed=1;html=1;strokeWidth=2;rounded=0;" parent="1" target="2WgujiNxTRjsTM1ibm0o-10" edge="1">
          <mxGeometry width="50" height="50" relative="1" as="geometry">
            <mxPoint x="790" y="1300" as="sourcePoint" />
            <mxPoint x="790" y="70" as="targetPoint" />
          </mxGeometry>
        </mxCell>
        <mxCell id="2WgujiNxTRjsTM1ibm0o-19" value="" style="endArrow=none;dashed=1;html=1;strokeWidth=2;rounded=0;" parent="1" target="2WgujiNxTRjsTM1ibm0o-11" edge="1">
          <mxGeometry width="50" height="50" relative="1" as="geometry">
            <mxPoint x="950" y="1300" as="sourcePoint" />
            <mxPoint x="950" y="70" as="targetPoint" />
          </mxGeometry>
        </mxCell>
        <mxCell id="2WgujiNxTRjsTM1ibm0o-20" value="" style="endArrow=none;dashed=1;html=1;strokeWidth=2;rounded=0;" parent="1" target="2WgujiNxTRjsTM1ibm0o-12" edge="1">
          <mxGeometry width="50" height="50" relative="1" as="geometry">
            <mxPoint x="1110" y="1300" as="sourcePoint" />
            <mxPoint x="1110" y="70" as="targetPoint" />
          </mxGeometry>
        </mxCell>
        <mxCell id="2WgujiNxTRjsTM1ibm0o-21" value="" style="endArrow=none;dashed=1;html=1;strokeWidth=2;rounded=0;" parent="1" target="2WgujiNxTRjsTM1ibm0o-13" edge="1">
          <mxGeometry width="50" height="50" relative="1" as="geometry">
            <mxPoint x="1270" y="1300" as="sourcePoint" />
            <mxPoint x="1270" y="70" as="targetPoint" />
          </mxGeometry>
        </mxCell>
        <mxCell id="2WgujiNxTRjsTM1ibm0o-22" value="" style="endArrow=classic;html=1;rounded=0;entryX=1;entryY=1;entryDx=0;entryDy=0;exitX=0;exitY=1;exitDx=0;exitDy=0;" parent="1" source="2WgujiNxTRjsTM1ibm0o-25" target="2WgujiNxTRjsTM1ibm0o-25" edge="1">
          <mxGeometry width="50" height="50" relative="1" as="geometry">
            <mxPoint x="100" y="100" as="sourcePoint" />
            <mxPoint x="170" y="90" as="targetPoint" />
          </mxGeometry>
        </mxCell>
        <mxCell id="2WgujiNxTRjsTM1ibm0o-23" value="" style="rounded=0;whiteSpace=wrap;html=1;" parent="1" vertex="1">
          <mxGeometry x="250" y="100" width="20" height="1170" as="geometry" />
        </mxCell>
        <mxCell id="2WgujiNxTRjsTM1ibm0o-25" value="MouseLDown(Point)" style="text;html=1;align=center;verticalAlign=middle;whiteSpace=wrap;rounded=0;" parent="1" vertex="1">
          <mxGeometry x="100" y="70" width="150" height="30" as="geometry" />
        </mxCell>
        <mxCell id="2WgujiNxTRjsTM1ibm0o-27" value="" style="endArrow=none;dashed=1;html=1;strokeWidth=2;rounded=0;" parent="1" target="2WgujiNxTRjsTM1ibm0o-26" edge="1">
          <mxGeometry width="50" height="50" relative="1" as="geometry">
            <mxPoint x="420" y="1300" as="sourcePoint" />
            <mxPoint x="420" y="150" as="targetPoint" />
          </mxGeometry>
        </mxCell>
        <mxCell id="2WgujiNxTRjsTM1ibm0o-26" value="" style="rounded=0;whiteSpace=wrap;html=1;" parent="1" vertex="1">
          <mxGeometry x="410" y="160" width="20" height="1050" as="geometry" />
        </mxCell>
        <mxCell id="2WgujiNxTRjsTM1ibm0o-30" value="" style="rounded=0;whiteSpace=wrap;html=1;" parent="1" vertex="1">
          <mxGeometry x="570" y="280" width="20" height="840" as="geometry" />
        </mxCell>
        <mxCell id="2WgujiNxTRjsTM1ibm0o-31" value="" style="endArrow=classic;html=1;rounded=0;exitX=0;exitY=1;exitDx=0;exitDy=0;entryX=0;entryY=0;entryDx=0;entryDy=0;" parent="1" source="2WgujiNxTRjsTM1ibm0o-32" edge="1">
          <mxGeometry width="50" height="50" relative="1" as="geometry">
            <mxPoint x="520" y="250" as="sourcePoint" />
            <mxPoint x="570" y="280.00000000000205" as="targetPoint" />
          </mxGeometry>
        </mxCell>
        <mxCell id="2WgujiNxTRjsTM1ibm0o-32" value="MouseLDown(Point)" style="text;html=1;align=center;verticalAlign=middle;whiteSpace=wrap;rounded=0;" parent="1" vertex="1">
          <mxGeometry x="430" y="250" width="140" height="30" as="geometry" />
        </mxCell>
        <mxCell id="2WgujiNxTRjsTM1ibm0o-35" value="opt" style="shape=umlFrame;whiteSpace=wrap;html=1;pointerEvents=0;" parent="1" vertex="1">
          <mxGeometry x="490" y="310" width="830" height="750" as="geometry" />
        </mxCell>
        <mxCell id="2WgujiNxTRjsTM1ibm0o-36" value="[Point is inside]" style="text;html=1;align=center;verticalAlign=middle;whiteSpace=wrap;rounded=0;fillColor=none;strokeColor=none;perimeterSpacing=0;shadow=0;glass=0;container=0;dropTarget=0;backgroundOutline=0;comic=0;fontSize=12;" parent="1" vertex="1">
          <mxGeometry x="600" y="310" width="120" height="30" as="geometry" />
        </mxCell>
        <mxCell id="2WgujiNxTRjsTM1ibm0o-37" value="" style="rounded=0;whiteSpace=wrap;html=1;" parent="1" vertex="1">
          <mxGeometry x="780" y="400" width="20" height="60" as="geometry" />
        </mxCell>
        <mxCell id="2WgujiNxTRjsTM1ibm0o-38" value="" style="endArrow=classic;html=1;rounded=0;exitX=0;exitY=1;exitDx=0;exitDy=0;entryX=1;entryY=1;entryDx=0;entryDy=0;" parent="1" source="2WgujiNxTRjsTM1ibm0o-39" target="2WgujiNxTRjsTM1ibm0o-39" edge="1">
          <mxGeometry width="50" height="50" relative="1" as="geometry">
            <mxPoint x="680" y="370" as="sourcePoint" />
            <mxPoint x="730" y="400" as="targetPoint" />
          </mxGeometry>
        </mxCell>
        <mxCell id="2WgujiNxTRjsTM1ibm0o-39" value="MouseLDown(Checkbox, Point)" style="text;html=1;align=center;verticalAlign=middle;whiteSpace=wrap;rounded=0;" parent="1" vertex="1">
          <mxGeometry x="590" y="370" width="190" height="30" as="geometry" />
        </mxCell>
        <mxCell id="2WgujiNxTRjsTM1ibm0o-40" value="" style="endArrow=none;html=1;rounded=0;exitX=0;exitY=1;exitDx=0;exitDy=0;entryX=1;entryY=1;entryDx=0;entryDy=0;startArrow=classic;startFill=1;endFill=0;" parent="1" source="2WgujiNxTRjsTM1ibm0o-41" target="2WgujiNxTRjsTM1ibm0o-41" edge="1">
          <mxGeometry width="50" height="50" relative="1" as="geometry">
            <mxPoint x="680" y="430" as="sourcePoint" />
            <mxPoint x="730" y="460" as="targetPoint" />
          </mxGeometry>
        </mxCell>
        <mxCell id="2WgujiNxTRjsTM1ibm0o-41" value="SetNext()" style="text;html=1;align=center;verticalAlign=middle;whiteSpace=wrap;rounded=0;" parent="1" vertex="1">
          <mxGeometry x="600" y="430" width="180" height="30" as="geometry" />
        </mxCell>
        <mxCell id="2WgujiNxTRjsTM1ibm0o-42" value="" style="rounded=0;whiteSpace=wrap;html=1;" parent="1" vertex="1">
          <mxGeometry x="940" y="520" width="20" height="60" as="geometry" />
        </mxCell>
        <mxCell id="2WgujiNxTRjsTM1ibm0o-43" value="" style="endArrow=classic;html=1;rounded=0;exitX=0;exitY=1;exitDx=0;exitDy=0;entryX=1;entryY=1;entryDx=0;entryDy=0;" parent="1" source="2WgujiNxTRjsTM1ibm0o-44" target="2WgujiNxTRjsTM1ibm0o-44" edge="1">
          <mxGeometry width="50" height="50" relative="1" as="geometry">
            <mxPoint x="680" y="490" as="sourcePoint" />
            <mxPoint x="730" y="520" as="targetPoint" />
          </mxGeometry>
        </mxCell>
        <mxCell id="2WgujiNxTRjsTM1ibm0o-44" value="SetNext(State)" style="text;html=1;align=center;verticalAlign=middle;whiteSpace=wrap;rounded=0;" parent="1" vertex="1">
          <mxGeometry x="600" y="490" width="340" height="30" as="geometry" />
        </mxCell>
        <mxCell id="2WgujiNxTRjsTM1ibm0o-45" value="" style="endArrow=none;html=1;rounded=0;exitX=0;exitY=1;exitDx=0;exitDy=0;entryX=1;entryY=1;entryDx=0;entryDy=0;endFill=0;startArrow=classic;startFill=1;dashed=1;" parent="1" source="2WgujiNxTRjsTM1ibm0o-46" target="2WgujiNxTRjsTM1ibm0o-46" edge="1">
          <mxGeometry width="50" height="50" relative="1" as="geometry">
            <mxPoint x="680" y="550" as="sourcePoint" />
            <mxPoint x="730" y="580" as="targetPoint" />
          </mxGeometry>
        </mxCell>
        <mxCell id="2WgujiNxTRjsTM1ibm0o-46" value="State changed" style="text;html=1;align=center;verticalAlign=middle;whiteSpace=wrap;rounded=0;" parent="1" vertex="1">
          <mxGeometry x="600" y="550" width="340" height="30" as="geometry" />
        </mxCell>
        <mxCell id="2WgujiNxTRjsTM1ibm0o-48" value="[State changed]" style="text;html=1;align=center;verticalAlign=middle;whiteSpace=wrap;rounded=0;fillColor=none;strokeColor=none;perimeterSpacing=0;shadow=0;glass=0;container=0;dropTarget=0;backgroundOutline=0;comic=0;fontSize=12;" parent="1" vertex="1">
          <mxGeometry x="610" y="610" width="120" height="30" as="geometry" />
        </mxCell>
        <mxCell id="2WgujiNxTRjsTM1ibm0o-49" value="" style="rounded=0;whiteSpace=wrap;html=1;" parent="1" vertex="1">
          <mxGeometry x="1100" y="700" width="20" height="150" as="geometry" />
        </mxCell>
        <mxCell id="2WgujiNxTRjsTM1ibm0o-50" value="" style="endArrow=classic;html=1;rounded=0;exitX=0;exitY=1;exitDx=0;exitDy=0;entryX=1;entryY=1;entryDx=0;entryDy=0;" parent="1" source="2WgujiNxTRjsTM1ibm0o-51" target="2WgujiNxTRjsTM1ibm0o-51" edge="1">
          <mxGeometry width="50" height="50" relative="1" as="geometry">
            <mxPoint x="680" y="670" as="sourcePoint" />
            <mxPoint x="730" y="700" as="targetPoint" />
          </mxGeometry>
        </mxCell>
        <mxCell id="2WgujiNxTRjsTM1ibm0o-51" value="Update(Glyph, State)" style="text;html=1;align=center;verticalAlign=middle;whiteSpace=wrap;rounded=0;" parent="1" vertex="1">
          <mxGeometry x="600" y="670" width="500" height="30" as="geometry" />
        </mxCell>
        <mxCell id="2WgujiNxTRjsTM1ibm0o-52" value="" style="endArrow=classic;html=1;rounded=0;exitX=0;exitY=1;exitDx=0;exitDy=0;entryX=0;entryY=0;entryDx=0;entryDy=0;" parent="1" source="2WgujiNxTRjsTM1ibm0o-53" edge="1">
          <mxGeometry width="50" height="50" relative="1" as="geometry">
            <mxPoint x="1210" y="730" as="sourcePoint" />
            <mxPoint x="1260" y="760" as="targetPoint" />
          </mxGeometry>
        </mxCell>
        <mxCell id="2WgujiNxTRjsTM1ibm0o-53" value="SetFrame(Frame)" style="text;html=1;align=center;verticalAlign=middle;whiteSpace=wrap;rounded=0;" parent="1" vertex="1">
          <mxGeometry x="1120" y="730" width="140" height="30" as="geometry" />
        </mxCell>
        <mxCell id="2WgujiNxTRjsTM1ibm0o-54" value="" style="rounded=0;whiteSpace=wrap;html=1;" parent="1" vertex="1">
          <mxGeometry x="1260" y="760" width="20" height="60" as="geometry" />
        </mxCell>
        <mxCell id="2WgujiNxTRjsTM1ibm0o-60" value="" style="endArrow=classic;html=1;rounded=0;exitX=0;exitY=1;exitDx=0;exitDy=0;entryX=1;entryY=1;entryDx=0;entryDy=0;" parent="1" source="2WgujiNxTRjsTM1ibm0o-61" target="2WgujiNxTRjsTM1ibm0o-61" edge="1">
          <mxGeometry width="50" height="50" relative="1" as="geometry">
            <mxPoint x="680" y="880" as="sourcePoint" />
            <mxPoint x="730" y="910" as="targetPoint" />
          </mxGeometry>
        </mxCell>
        <mxCell id="2WgujiNxTRjsTM1ibm0o-61" value="Redraw(Empty)" style="text;html=1;align=center;verticalAlign=middle;whiteSpace=wrap;rounded=0;" parent="1" vertex="1">
          <mxGeometry x="600" y="880" width="660" height="30" as="geometry" />
        </mxCell>
        <mxCell id="2WgujiNxTRjsTM1ibm0o-62" value="" style="rounded=0;whiteSpace=wrap;html=1;" parent="1" vertex="1">
          <mxGeometry x="1260" y="910" width="20" height="60" as="geometry" />
        </mxCell>
        <mxCell id="2WgujiNxTRjsTM1ibm0o-64" value="" style="endArrow=classic;html=1;rounded=0;exitX=0;exitY=1;exitDx=0;exitDy=0;entryX=1;entryY=1;entryDx=0;entryDy=0;" parent="1" source="2WgujiNxTRjsTM1ibm0o-65" target="2WgujiNxTRjsTM1ibm0o-65" edge="1">
          <mxGeometry width="50" height="50" relative="1" as="geometry">
            <mxPoint x="390" y="250" as="sourcePoint" />
            <mxPoint x="440" y="200" as="targetPoint" />
          </mxGeometry>
        </mxCell>
        <mxCell id="2WgujiNxTRjsTM1ibm0o-65" value="MouseLDown(Point)" style="text;html=1;align=center;verticalAlign=middle;whiteSpace=wrap;rounded=0;" parent="1" vertex="1">
          <mxGeometry x="270" y="130" width="140" height="30" as="geometry" />
        </mxCell>
        <mxCell id="2WgujiNxTRjsTM1ibm0o-73" value="opt" style="shape=umlFrame;whiteSpace=wrap;html=1;pointerEvents=0;" parent="1" vertex="1">
          <mxGeometry x="340" y="190" width="1010" height="960" as="geometry" />
        </mxCell>
        <mxCell id="2WgujiNxTRjsTM1ibm0o-74" value="[Point is inside]" style="text;html=1;align=center;verticalAlign=middle;whiteSpace=wrap;rounded=0;fillColor=none;strokeColor=none;perimeterSpacing=0;shadow=0;glass=0;container=0;dropTarget=0;backgroundOutline=0;comic=0;fontSize=12;" parent="1" vertex="1">
          <mxGeometry x="440" y="190" width="120" height="30" as="geometry" />
        </mxCell>
        <mxCell id="2WgujiNxTRjsTM1ibm0o-85" value="" style="rounded=0;whiteSpace=wrap;html=1;" parent="1" vertex="1">
          <mxGeometry x="580" y="460" width="20" height="570" as="geometry" />
        </mxCell>
        <mxCell id="2WgujiNxTRjsTM1ibm0o-47" value="opt" style="shape=umlFrame;whiteSpace=wrap;html=1;pointerEvents=0;" parent="1" vertex="1">
          <mxGeometry x="500" y="610" width="810" height="390" as="geometry" />
        </mxCell>
        <mxCell id="2WgujiNxTRjsTM1ibm0o-87" value="" style="endArrow=none;html=1;rounded=0;exitX=0;exitY=1;exitDx=0;exitDy=0;entryX=1;entryY=1;entryDx=0;entryDy=0;endFill=0;startArrow=classic;startFill=1;dashed=1;" parent="1" source="2WgujiNxTRjsTM1ibm0o-88" target="2WgujiNxTRjsTM1ibm0o-88" edge="1">
          <mxGeometry width="50" height="50" relative="1" as="geometry">
            <mxPoint x="510" y="1090" as="sourcePoint" />
            <mxPoint x="560" y="1120" as="targetPoint" />
          </mxGeometry>
        </mxCell>
        <mxCell id="2WgujiNxTRjsTM1ibm0o-88" value="Handled" style="text;html=1;align=center;verticalAlign=middle;whiteSpace=wrap;rounded=0;" parent="1" vertex="1">
          <mxGeometry x="430" y="1090" width="140" height="30" as="geometry" />
        </mxCell>
        <mxCell id="2WgujiNxTRjsTM1ibm0o-89" value="" style="endArrow=none;html=1;rounded=0;exitX=0;exitY=1;exitDx=0;exitDy=0;entryX=1;entryY=1;entryDx=0;entryDy=0;endFill=0;startArrow=classic;startFill=1;dashed=1;" parent="1" source="2WgujiNxTRjsTM1ibm0o-90" target="2WgujiNxTRjsTM1ibm0o-90" edge="1">
          <mxGeometry width="50" height="50" relative="1" as="geometry">
            <mxPoint x="350" y="1180" as="sourcePoint" />
            <mxPoint x="400" y="1210" as="targetPoint" />
          </mxGeometry>
        </mxCell>
        <mxCell id="2WgujiNxTRjsTM1ibm0o-90" value="Handled" style="text;html=1;align=center;verticalAlign=middle;whiteSpace=wrap;rounded=0;" parent="1" vertex="1">
          <mxGeometry x="270" y="1180" width="140" height="30" as="geometry" />
        </mxCell>
        <mxCell id="2WgujiNxTRjsTM1ibm0o-91" value="" style="endArrow=none;html=1;rounded=0;exitX=0;exitY=1;exitDx=0;exitDy=0;entryX=1;entryY=1;entryDx=0;entryDy=0;endFill=0;startArrow=classic;startFill=1;dashed=1;" parent="1" source="2WgujiNxTRjsTM1ibm0o-92" target="2WgujiNxTRjsTM1ibm0o-92" edge="1">
          <mxGeometry width="50" height="50" relative="1" as="geometry">
            <mxPoint x="190" y="1240" as="sourcePoint" />
            <mxPoint x="240" y="1270" as="targetPoint" />
          </mxGeometry>
        </mxCell>
        <mxCell id="2WgujiNxTRjsTM1ibm0o-92" value="Handled" style="text;html=1;align=center;verticalAlign=middle;whiteSpace=wrap;rounded=0;" parent="1" vertex="1">
          <mxGeometry x="100" y="1240" width="150" height="30" as="geometry" />
        </mxCell>
      </root>
    </mxGraphModel>
  </diagram>
</mxfile>
